<?xml version="1.0" encoding="utf-8"?>
<!-- Generator: Adobe Illustrator 22.0.1, SVG Export Plug-In . SVG Version: 6.00 Build 0)  -->
<svg version="1.1" id="Layer_1" xmlns="http://www.w3.org/2000/svg" xmlns:xlink="http://www.w3.org/1999/xlink" x="0px" y="0px"
	 viewBox="0 0 9.7 9" style="enable-background:new 0 0 9.7 9;" xml:space="preserve">
<style type="text/css">
	.st0{clip-path:url(#SVGID_2_);fill:#FFFFFF;}
	.st1{clip-path:url(#SVGID_4_);fill:#FFFFFF;}
	.st2{clip-path:url(#SVGID_6_);fill:#FFFFFF;}
	.st3{clip-path:url(#SVGID_8_);fill:#FFFFFF;}
	.st4{clip-path:url(#SVGID_10_);fill:#FFFFFF;}
	.st5{clip-path:url(#SVGID_12_);fill:#FFFFFF;}
	.st6{clip-path:url(#SVGID_14_);fill:#FFFFFF;}
	.st7{clip-path:url(#SVGID_16_);fill:#FFFFFF;}
	.st8{clip-path:url(#SVGID_18_);fill:#FFFFFF;}
	.st9{clip-path:url(#SVGID_20_);fill:#FFFFFF;}
	.st10{clip-path:url(#SVGID_22_);fill:#636B70;}
	.st11{clip-path:url(#SVGID_22_);}
	.st12{clip-path:url(#SVGID_22_);fill:#FFFFFF;}
	.st13{clip-path:url(#SVGID_22_);fill:#EE5264;}
	.st14{clip-path:url(#SVGID_24_);fill:#FFFFFF;}
	.st15{clip-path:url(#SVGID_24_);fill:#393536;}
</style>
<g>
	<defs>
		<rect id="SVGID_1_" x="-0.1" width="9.7" height="9"/>
	</defs>
	<clipPath id="SVGID_2_">
		<use xlink:href="#SVGID_1_"  style="overflow:visible;"/>
	</clipPath>
	<path class="st0" d="M9.3,3.2L7.8,2V0.7c0-0.2-0.2-0.4-0.4-0.4H6.8c-0.2,0-0.4,0.2-0.4,0.4V1L5.3,0.2C5,0,4.6,0,4.4,0.2l-4,3
		C0.1,3.3,0.1,3.7,0.2,4l0.1,0.2c0.2,0.3,0.5,0.3,0.8,0.1l3.2-2.4c0.2-0.2,0.7-0.2,0.9,0l3.2,2.4c0.2,0.2,0.6,0.1,0.8-0.1L9.4,4
		C9.6,3.7,9.5,3.3,9.3,3.2z"/>
	<path class="st0" d="M8.1,4.4L5.3,2.3C5,2.1,4.6,2.1,4.4,2.3L1.6,4.4C1.3,4.6,1.1,4.9,1.1,5v0.3v0.2v2.6C1.1,8.6,1.5,9,2,9h1.7V6.3
		c0-0.2,0.2-0.4,0.4-0.4h1.4c0.2,0,0.4,0.2,0.4,0.4V9h1.7c0.5,0,0.9-0.4,0.9-0.9V5.5V5.3V5C8.5,4.9,8.3,4.6,8.1,4.4z"/>
</g>
</svg>
