<?xml version="1.0" encoding="utf-8"?>
<!-- Generator: Adobe Illustrator 22.0.1, SVG Export Plug-In . SVG Version: 6.00 Build 0)  -->
<svg version="1.1" id="Layer_1" xmlns="http://www.w3.org/2000/svg" xmlns:xlink="http://www.w3.org/1999/xlink" x="0px" y="0px"
	 viewBox="0 0 14.2 9.8" style="enable-background:new 0 0 14.2 9.8;" xml:space="preserve">
<style type="text/css">
	.st0{clip-path:url(#SVGID_2_);fill:#FFFFFF;}
	.st1{clip-path:url(#SVGID_4_);fill:#FFFFFF;}
	.st2{clip-path:url(#SVGID_6_);fill:#FFFFFF;}
	.st3{clip-path:url(#SVGID_8_);fill:#FFFFFF;}
	.st4{clip-path:url(#SVGID_10_);fill:#FFFFFF;}
	.st5{clip-path:url(#SVGID_12_);fill:#FFFFFF;}
	.st6{clip-path:url(#SVGID_14_);fill:#FFFFFF;}
	.st7{clip-path:url(#SVGID_16_);fill:#FFFFFF;}
	.st8{clip-path:url(#SVGID_18_);fill:#FFFFFF;}
	.st9{clip-path:url(#SVGID_20_);fill:#FFFFFF;}
	.st10{clip-path:url(#SVGID_22_);fill:#636B70;}
	.st11{clip-path:url(#SVGID_22_);}
	.st12{clip-path:url(#SVGID_22_);fill:#FFFFFF;}
	.st13{clip-path:url(#SVGID_22_);fill:#EE5264;}
	.st14{clip-path:url(#SVGID_24_);fill:#FFFFFF;}
	.st15{clip-path:url(#SVGID_24_);fill:#393536;}
</style>
<g>
	<defs>
		<rect id="SVGID_7_" x="-0.1" width="14.2" height="9.8"/>
	</defs>
	<clipPath id="SVGID_2_">
		<use xlink:href="#SVGID_7_"  style="overflow:visible;"/>
	</clipPath>
	<path class="st0" d="M14.2,0.7v5.6c0,0.2-0.1,0.4-0.2,0.5C13.8,6.9,13.7,7,13.5,7c-0.2,0-0.4-0.1-0.5-0.2c-0.1-0.1-0.2-0.3-0.2-0.5
		V2.4L8.3,6.8C8.1,6.9,8,7,7.8,7S7.4,6.9,7.3,6.8L5.6,5.2L1.1,9.5C1,9.7,0.8,9.8,0.6,9.8c-0.2,0-0.4-0.1-0.5-0.2
		C0,9.4-0.1,9.2-0.1,9.1S0,8.7,0.1,8.6l5-4.9c0.1-0.1,0.3-0.2,0.5-0.2S6,3.5,6.1,3.7l1.6,1.6l4-3.9h-4c-0.2,0-0.4-0.1-0.5-0.2
		C7.1,1.1,7,0.9,7,0.7c0-0.2,0.1-0.4,0.2-0.5C7.4,0.1,7.6,0,7.8,0h5.7c0.2,0,0.4,0.1,0.5,0.2S14.2,0.5,14.2,0.7z"/>
</g>
</svg>
