<?xml version="1.0" encoding="utf-8"?>
<!-- Generator: Adobe Illustrator 22.0.1, SVG Export Plug-In . SVG Version: 6.00 Build 0)  -->
<svg version="1.1" id="Layer_1" xmlns="http://www.w3.org/2000/svg" xmlns:xlink="http://www.w3.org/1999/xlink" x="0px" y="0px"
	 viewBox="0 0 12 13.5" style="enable-background:new 0 0 12 13.5;" xml:space="preserve">
<style type="text/css">
	.st0{clip-path:url(#SVGID_2_);fill:#FFFFFF;}
	.st1{clip-path:url(#SVGID_4_);fill:#FFFFFF;}
	.st2{clip-path:url(#SVGID_6_);fill:#FFFFFF;}
	.st3{clip-path:url(#SVGID_8_);fill:#FFFFFF;}
	.st4{clip-path:url(#SVGID_10_);fill:#FFFFFF;}
	.st5{clip-path:url(#SVGID_12_);fill:#FFFFFF;}
	.st6{clip-path:url(#SVGID_14_);fill:#FFFFFF;}
	.st7{clip-path:url(#SVGID_16_);fill:#FFFFFF;}
	.st8{clip-path:url(#SVGID_18_);fill:#FFFFFF;}
	.st9{clip-path:url(#SVGID_20_);fill:#FFFFFF;}
	.st10{clip-path:url(#SVGID_22_);fill:#636B70;}
	.st11{clip-path:url(#SVGID_22_);}
	.st12{clip-path:url(#SVGID_22_);fill:#FFFFFF;}
	.st13{clip-path:url(#SVGID_22_);fill:#EE5264;}
	.st14{clip-path:url(#SVGID_24_);fill:#FFFFFF;}
	.st15{clip-path:url(#SVGID_24_);fill:#393536;}
</style>
<g>
	<defs>
		<rect id="SVGID_21_" width="12" height="13.5"/>
	</defs>
	<clipPath id="SVGID_2_">
		<use xlink:href="#SVGID_21_"  style="overflow:visible;"/>
	</clipPath>
	<path style="clip-path:url(#SVGID_2_);fill:#636B70;" d="M11,13.5H1c-0.5,0-1-0.4-1-0.9V0.9C0,0.4,0.4,0,1,0H11c0.5,0,1,0.4,1,0.9
		v11.6C12,13.1,11.6,13.5,11,13.5"/>
	<polyline style="clip-path:url(#SVGID_2_);" points="11,12.1 1,12.1 1,0.9 11,0.9 11,12.1 	"/>
	<path class="st0" d="M6,11.2c-0.1,0-0.2-0.1-0.2-0.2V2.1C5.8,2,5.9,1.9,6,1.9c0.1,0,0.2,0.1,0.2,0.2v8.8C6.2,11.1,6.1,11.2,6,11.2"
		/>
	<path class="st0" d="M5,3.7H3.1C3,3.7,2.9,3.6,2.9,3.5S3,3.3,3.1,3.3H5c0.1,0,0.2,0.1,0.2,0.2S5.2,3.7,5,3.7"/>
	<path class="st0" d="M5,4.7H2.2C2,4.7,1.9,4.6,1.9,4.4S2,4.2,2.2,4.2H5c0.1,0,0.2,0.1,0.2,0.2S5.2,4.7,5,4.7"/>
	<path class="st0" d="M5,5.6H2.2C2,5.6,1.9,5.5,1.9,5.4S2,5.1,2.2,5.1H5c0.1,0,0.2,0.1,0.2,0.2S5.2,5.6,5,5.6"/>
	<path class="st0" d="M5,6.5H2.2C2,6.5,1.9,6.4,1.9,6.3S2,6.1,2.2,6.1H5c0.1,0,0.2,0.1,0.2,0.2S5.2,6.5,5,6.5"/>
	<path class="st0" d="M5,7.4H2.2C2,7.4,1.9,7.3,1.9,7.2S2,7,2.2,7H5c0.1,0,0.2,0.1,0.2,0.2S5.2,7.4,5,7.4"/>
	<path class="st0" d="M5,8.4H2.2C2,8.4,1.9,8.3,1.9,8.1S2,7.9,2.2,7.9H5c0.1,0,0.2,0.1,0.2,0.2S5.2,8.4,5,8.4"/>
	<path class="st0" d="M5,9.3H2.2C2,9.3,1.9,9.2,1.9,9.1S2,8.8,2.2,8.8H5c0.1,0,0.2,0.1,0.2,0.2S5.2,9.3,5,9.3"/>
	<path class="st0" d="M5,10.2H2.2c-0.1,0-0.2-0.1-0.2-0.2c0-0.1,0.1-0.2,0.2-0.2H5c0.1,0,0.2,0.1,0.2,0.2C5.3,10.1,5.2,10.2,5,10.2"
		/>
	<path class="st0" d="M5,11.2H2.2c-0.1,0-0.2-0.1-0.2-0.2s0.1-0.2,0.2-0.2H5c0.1,0,0.2,0.1,0.2,0.2S5.2,11.2,5,11.2"/>
	<path class="st0" d="M8.4,2.8H7c-0.1,0-0.2-0.1-0.2-0.2S6.8,2.3,7,2.3h1.4c0.1,0,0.2,0.1,0.2,0.2S8.5,2.8,8.4,2.8"/>
	<path class="st0" d="M9.8,3.7H7c-0.1,0-0.2-0.1-0.2-0.2S6.8,3.3,7,3.3h2.9c0.1,0,0.2,0.1,0.2,0.2S10,3.7,9.8,3.7"/>
	<path class="st0" d="M9.8,4.7H7c-0.1,0-0.2-0.1-0.2-0.2S6.8,4.2,7,4.2h2.9c0.1,0,0.2,0.1,0.2,0.2S10,4.7,9.8,4.7"/>
	<path class="st0" d="M9.8,5.6H7c-0.1,0-0.2-0.1-0.2-0.2S6.8,5.1,7,5.1h2.9c0.1,0,0.2,0.1,0.2,0.2S10,5.6,9.8,5.6"/>
	<path class="st0" d="M9.8,6.5H7c-0.1,0-0.2-0.1-0.2-0.2S6.8,6.1,7,6.1h2.9c0.1,0,0.2,0.1,0.2,0.2S10,6.5,9.8,6.5"/>
	<path class="st0" d="M9.8,7.4H7c-0.1,0-0.2-0.1-0.2-0.2S6.8,7,7,7h2.9c0.1,0,0.2,0.1,0.2,0.2S10,7.4,9.8,7.4"/>
	<path class="st0" d="M9.8,8.4H7c-0.1,0-0.2-0.1-0.2-0.2S6.8,7.9,7,7.9h2.9c0.1,0,0.2,0.1,0.2,0.2S10,8.4,9.8,8.4"/>
	<path class="st0" d="M9.8,9.3H7c-0.1,0-0.2-0.1-0.2-0.2S6.8,8.8,7,8.8h2.9c0.1,0,0.2,0.1,0.2,0.2S10,9.3,9.8,9.3"/>
	<path class="st0" d="M9.8,10.2H7c-0.1,0-0.2-0.1-0.2-0.2c0-0.1,0.1-0.2,0.2-0.2h2.9c0.1,0,0.2,0.1,0.2,0.2
		C10.1,10.1,10,10.2,9.8,10.2"/>
	<path class="st0" d="M9.8,11.2H7c-0.1,0-0.2-0.1-0.2-0.2s0.1-0.2,0.2-0.2h2.9c0.1,0,0.2,0.1,0.2,0.2S10,11.2,9.8,11.2"/>
	<path class="st0" d="M3.4,2.3H1.9c-0.1,0-0.2-0.1-0.2-0.2s0.1-0.2,0.2-0.2h1.4c0.1,0,0.2,0.1,0.2,0.2S3.5,2.3,3.4,2.3"/>
	<polyline style="clip-path:url(#SVGID_2_);fill:#EE5264;" points="9.8,2.8 9.1,2.3 8.4,2.8 8.4,0.9 9.8,0.9 9.8,2.8 	"/>
</g>
</svg>
