<?xml version="1.0" encoding="utf-8"?>
<!-- Generator: Adobe Illustrator 22.0.1, SVG Export Plug-In . SVG Version: 6.00 Build 0)  -->
<svg version="1.1" id="Layer_1" xmlns="http://www.w3.org/2000/svg" xmlns:xlink="http://www.w3.org/1999/xlink" x="0px" y="0px"
	 viewBox="0 0 12 12" style="enable-background:new 0 0 12 12;" xml:space="preserve">
<style type="text/css">
	.st0{clip-path:url(#SVGID_2_);fill:#FFFFFF;}
	.st1{clip-path:url(#SVGID_4_);fill:#FFFFFF;}
	.st2{clip-path:url(#SVGID_6_);fill:#FFFFFF;}
	.st3{clip-path:url(#SVGID_8_);fill:#FFFFFF;}
	.st4{clip-path:url(#SVGID_10_);fill:#FFFFFF;}
	.st5{clip-path:url(#SVGID_12_);fill:#FFFFFF;}
	.st6{clip-path:url(#SVGID_14_);fill:#FFFFFF;}
	.st7{clip-path:url(#SVGID_16_);fill:#FFFFFF;}
	.st8{clip-path:url(#SVGID_18_);fill:#FFFFFF;}
	.st9{clip-path:url(#SVGID_20_);fill:#FFFFFF;}
	.st10{clip-path:url(#SVGID_22_);fill:#636B70;}
	.st11{clip-path:url(#SVGID_22_);}
	.st12{clip-path:url(#SVGID_22_);fill:#FFFFFF;}
	.st13{clip-path:url(#SVGID_22_);fill:#EE5264;}
	.st14{clip-path:url(#SVGID_24_);fill:#FFFFFF;}
	.st15{clip-path:url(#SVGID_24_);fill:#393536;}
</style>
<g>
	<defs>
		<rect id="SVGID_19_" width="12" height="12"/>
	</defs>
	<clipPath id="SVGID_2_">
		<use xlink:href="#SVGID_19_"  style="overflow:visible;"/>
	</clipPath>
	<path class="st0" d="M8.7,6.1c0,0.1-0.1,0.3-0.3,0.3L5.2,8.3C5.1,8.4,5,8.4,4.9,8.4c-0.3,0-0.6-0.2-0.6-0.6V4.2
		c0-0.1,0-0.2,0.1-0.3C4.6,3.6,5,3.5,5.2,3.7l3.2,1.8c0.1,0,0.2,0.1,0.2,0.2C8.7,5.9,8.7,6,8.7,6.1z M6,0C2.7,0,0,2.7,0,6
		c0,3.3,2.7,6,6,6s6-2.7,6-6C12,2.7,9.3,0,6,0z"/>
</g>
</svg>
