<?xml version="1.0" encoding="utf-8"?>
<!-- Generator: Adobe Illustrator 22.0.1, SVG Export Plug-In . SVG Version: 6.00 Build 0)  -->
<svg version="1.1" id="Layer_1" xmlns="http://www.w3.org/2000/svg" xmlns:xlink="http://www.w3.org/1999/xlink" x="0px" y="0px"
	 viewBox="0 0 11.2 12" style="enable-background:new 0 0 11.2 12;" xml:space="preserve">
<style type="text/css">
	.st0{clip-path:url(#SVGID_2_);fill:#FFFFFF;}
	.st1{clip-path:url(#SVGID_4_);fill:#FFFFFF;}
	.st2{clip-path:url(#SVGID_6_);fill:#FFFFFF;}
	.st3{clip-path:url(#SVGID_8_);fill:#FFFFFF;}
	.st4{clip-path:url(#SVGID_10_);fill:#FFFFFF;}
	.st5{clip-path:url(#SVGID_12_);fill:#FFFFFF;}
	.st6{clip-path:url(#SVGID_14_);fill:#FFFFFF;}
	.st7{clip-path:url(#SVGID_16_);fill:#FFFFFF;}
	.st8{clip-path:url(#SVGID_18_);fill:#FFFFFF;}
	.st9{clip-path:url(#SVGID_20_);fill:#FFFFFF;}
	.st10{clip-path:url(#SVGID_22_);fill:#636B70;}
	.st11{clip-path:url(#SVGID_22_);}
	.st12{clip-path:url(#SVGID_22_);fill:#FFFFFF;}
	.st13{clip-path:url(#SVGID_22_);fill:#EE5264;}
	.st14{clip-path:url(#SVGID_24_);fill:#FFFFFF;}
	.st15{clip-path:url(#SVGID_24_);fill:#393536;}
</style>
<g>
	<defs>
		<rect id="SVGID_3_" x="-0.1" width="11.2" height="12"/>
	</defs>
	<clipPath id="SVGID_2_">
		<use xlink:href="#SVGID_3_"  style="overflow:visible;"/>
	</clipPath>
	<path class="st0" d="M9.8,5.9C9.8,5.9,9.8,5.9,9.8,5.9L9.8,5.9C9.8,5.9,9.8,5.9,9.8,5.9C9,5.9,8.4,6.5,8.4,7.3v0.4
		C8.4,8,8.7,8.3,9,8.3h0.4c-0.6,1-1.5,1.8-2.6,2.1c-0.1-0.1-0.1-0.2-0.2-0.3c-0.2-0.3-0.6-0.4-1-0.4h0c-0.5,0-1,0.3-1.2,0.7
		c-1.1-0.3-2.1-1.1-2.7-2.1h0.4c0.3,0,0.6-0.3,0.6-0.6V7.3c0-0.8-0.6-1.4-1.4-1.4c0,0,0,0,0,0c-0.8,0-1.3,0.6-1.3,1.4v0.4
		c0,0.3,0.2,0.6,0.5,0.6h0.7c0.3,0.6,0.7,1.2,1.3,1.6c0.5,0.4,1.1,0.8,1.8,0.9c0,0.1,0,0.1,0,0.2v0.4c0,0.3,0.2,0.6,0.5,0.6h1.7
		c0.3,0,0.6-0.3,0.6-0.6V11c0-0.1,0-0.1,0-0.2c0.6-0.2,1.2-0.5,1.8-0.9c0.5-0.4,1-1,1.3-1.6h0.7c0.3,0,0.5-0.3,0.5-0.6V7.3
		C11.2,6.5,10.5,5.9,9.8,5.9"/>
	<path class="st0" d="M6.9,4V3.6c0-0.4-0.2-0.7-0.4-1c-0.2-0.3-0.6-0.4-1-0.4h0c-0.8,0-1.4,0.6-1.4,1.4V4c0,0.3,0.2,0.6,0.5,0.6h1.7
		C6.7,4.5,6.9,4.3,6.9,4"/>
	<path class="st0" d="M5.5,7.5c-0.6,0-1,0.5-1,1.1c0,0.6,0.5,1.1,1,1.1s1-0.5,1-1.1C6.6,8,6.1,7.5,5.5,7.5"/>
	<path class="st0" d="M1.3,5.8c0.6,0,1-0.5,1-1.1c0-0.5-0.3-0.8-0.7-1c0.6-1.2,1.7-2,3-2.2c0.2,0.3,0.5,0.5,0.9,0.5
		c0.4,0,0.7-0.2,0.9-0.5c1.3,0.3,2.4,1.1,3,2.2C9,4,8.7,4.3,8.7,4.8c0,0.6,0.5,1.1,1,1.1c0.6,0,1-0.5,1-1.1c0-0.5-0.4-1-0.9-1
		C9.3,2.4,8,1.4,6.6,1.1c0,0,0,0,0,0c0-0.6-0.5-1.1-1-1.1s-1,0.5-1,1.1c0,0,0,0,0,0C3,1.4,1.8,2.4,1.1,3.8c-0.5,0.1-0.9,0.5-0.9,1
		C0.2,5.4,0.7,5.8,1.3,5.8"/>
</g>
</svg>
