<?xml version="1.0" encoding="utf-8"?>
<!-- Generator: Adobe Illustrator 22.0.1, SVG Export Plug-In . SVG Version: 6.00 Build 0)  -->
<svg version="1.1" id="Layer_1" xmlns="http://www.w3.org/2000/svg" xmlns:xlink="http://www.w3.org/1999/xlink" x="0px" y="0px"
	 viewBox="0 0 12 15" style="enable-background:new 0 0 12 15;" xml:space="preserve">
<style type="text/css">
	.st0{clip-path:url(#SVGID_2_);fill:#FFFFFF;}
	.st1{clip-path:url(#SVGID_4_);fill:#FFFFFF;}
	.st2{clip-path:url(#SVGID_6_);fill:#FFFFFF;}
	.st3{clip-path:url(#SVGID_8_);fill:#FFFFFF;}
	.st4{clip-path:url(#SVGID_10_);fill:#FFFFFF;}
	.st5{clip-path:url(#SVGID_12_);fill:#FFFFFF;}
	.st6{clip-path:url(#SVGID_14_);fill:#FFFFFF;}
	.st7{clip-path:url(#SVGID_16_);fill:#FFFFFF;}
	.st8{clip-path:url(#SVGID_18_);fill:#FFFFFF;}
	.st9{clip-path:url(#SVGID_20_);fill:#FFFFFF;}
	.st10{clip-path:url(#SVGID_22_);fill:#636B70;}
	.st11{clip-path:url(#SVGID_22_);}
	.st12{clip-path:url(#SVGID_22_);fill:#FFFFFF;}
	.st13{clip-path:url(#SVGID_22_);fill:#EE5264;}
	.st14{clip-path:url(#SVGID_24_);fill:#FFFFFF;}
	.st15{clip-path:url(#SVGID_24_);fill:#393536;}
</style>
<g>
	<defs>
		<rect id="SVGID_11_" width="12" height="15"/>
	</defs>
	<clipPath id="SVGID_2_">
		<use xlink:href="#SVGID_11_"  style="overflow:visible;"/>
	</clipPath>
	<path class="st0" d="M10.7,8.7H8c-0.1,0-0.2-0.1-0.2-0.2c0-0.1,0.1-0.2,0.2-0.2h2.6c0.1,0,0.2,0.1,0.2,0.2
		C10.9,8.6,10.8,8.7,10.7,8.7z M10.7,9.4H8c-0.1,0-0.2-0.1-0.2-0.2C7.8,9.1,7.9,9,8,9h2.6c0.1,0,0.2,0.1,0.2,0.2
		C10.9,9.3,10.8,9.4,10.7,9.4z M10.7,10.2H8c-0.1,0-0.2-0.1-0.2-0.2S7.9,9.7,8,9.7h2.6c0.1,0,0.2,0.1,0.2,0.2
		C10.9,10.1,10.8,10.2,10.7,10.2z M10.7,10.9H8c-0.1,0-0.2-0.1-0.2-0.2s0.1-0.2,0.2-0.2h2.6c0.1,0,0.2,0.1,0.2,0.2
		S10.8,10.9,10.7,10.9z M10.7,11.7H8c-0.1,0-0.2-0.1-0.2-0.2c0-0.1,0.1-0.2,0.2-0.2h2.6c0.1,0,0.2,0.1,0.2,0.2
		C10.9,11.6,10.8,11.7,10.7,11.7z M6.7,10.8c0,0.1,0,0.1,0,0.2c0,0.2-0.1,0.4-0.2,0.6c0,0.1-0.1,0.1-0.1,0.2C6.3,12,6.2,12.2,6,12.4
		c-0.1,0.1-0.1,0.1-0.2,0.2c-0.5,0.5-1.2,0.8-2,0.8c-0.8,0-1.5-0.3-2-0.8c-0.1-0.1-0.1-0.1-0.2-0.2c-0.1-0.2-0.3-0.4-0.4-0.6
		c0-0.1-0.1-0.1-0.1-0.2c-0.1-0.2-0.1-0.4-0.2-0.6c0-0.1,0-0.1,0-0.2c0-0.1,0-0.2,0-0.3s0-0.2,0-0.3c0-0.1,0-0.1,0-0.2
		c0-0.2,0.1-0.4,0.2-0.6c0-0.1,0.1-0.1,0.1-0.2c0.1-0.2,0.2-0.4,0.4-0.6C1.8,8.6,1.9,8.6,2,8.5c0.5-0.5,1.2-0.8,2-0.8
		c0.8,0,1.5,0.3,2,0.8C5.9,8.6,6,8.6,6,8.7c0.1,0.2,0.3,0.4,0.4,0.6c0,0.1,0.1,0.1,0.1,0.2C6.6,9.7,6.6,9.9,6.7,10
		c0,0.1,0,0.1,0,0.2c0,0.1,0,0.2,0,0.3S6.7,10.7,6.7,10.8z M11.3,6.1H8.2c0,0,0,0,0-0.1c0-0.2-0.2-0.4-0.4-0.4L5.4,0.1
		C5.3,0,5.2,0,5.1,0C5,0.1,5,0.2,5,0.3l2.4,5.4C7.4,5.7,7.3,5.8,7.3,6c0,0,0,0,0,0.1H0.7c-0.3,0-0.6,0.3-0.6,0.6v7.7
		c0,0.3,0.3,0.6,0.6,0.6h10.6c0.3,0,0.6-0.3,0.6-0.6V6.7C11.9,6.3,11.7,6.1,11.3,6.1z"/>
	<path class="st0" d="M6,9.5H1.8c-0.1,0.2-0.2,0.4-0.2,0.6h4.6C6.2,9.9,6.1,9.7,6,9.5z"/>
	<path class="st0" d="M1.6,10.3c0,0.1,0,0.2,0,0.3s0,0.2,0,0.3h4.7c0-0.1,0-0.2,0-0.3s0-0.2,0-0.3H1.6z"/>
	<path class="st0" d="M5.5,8.7H2.4C2.2,8.9,2,9.1,1.9,9.3h4C5.8,9.1,5.6,8.9,5.5,8.7z"/>
	<path class="st0" d="M3.9,8.2C3.4,8.2,3,8.3,2.6,8.6h2.6C4.8,8.3,4.4,8.2,3.9,8.2z"/>
	<path class="st0" d="M1.8,11.6H6c0.1-0.2,0.2-0.4,0.2-0.6H1.6C1.6,11.2,1.7,11.4,1.8,11.6z"/>
	<path class="st0" d="M2.4,12.3h3.1c0.2-0.2,0.4-0.4,0.5-0.6h-4C2,12,2.2,12.2,2.4,12.3z"/>
	<path class="st0" d="M3.9,12.9c0.5,0,0.9-0.1,1.3-0.4H2.6C3,12.8,3.4,12.9,3.9,12.9z"/>
</g>
</svg>
