<?xml version="1.0" encoding="utf-8"?>
<!-- Generator: Adobe Illustrator 22.0.1, SVG Export Plug-In . SVG Version: 6.00 Build 0)  -->
<svg version="1.1" id="Layer_1" xmlns="http://www.w3.org/2000/svg" xmlns:xlink="http://www.w3.org/1999/xlink" x="0px" y="0px"
	 viewBox="0 0 20.2 9" style="enable-background:new 0 0 20.2 9;" xml:space="preserve">
<style type="text/css">
	.st0{clip-path:url(#SVGID_2_);fill:#FFFFFF;}
	.st1{clip-path:url(#SVGID_4_);fill:#FFFFFF;}
	.st2{clip-path:url(#SVGID_6_);fill:#FFFFFF;}
	.st3{clip-path:url(#SVGID_8_);fill:#FFFFFF;}
	.st4{clip-path:url(#SVGID_10_);fill:#FFFFFF;}
	.st5{clip-path:url(#SVGID_12_);fill:#FFFFFF;}
	.st6{clip-path:url(#SVGID_14_);fill:#FFFFFF;}
	.st7{clip-path:url(#SVGID_16_);fill:#FFFFFF;}
	.st8{clip-path:url(#SVGID_18_);fill:#FFFFFF;}
	.st9{clip-path:url(#SVGID_20_);fill:#FFFFFF;}
	.st10{clip-path:url(#SVGID_22_);fill:#636B70;}
	.st11{clip-path:url(#SVGID_22_);}
	.st12{clip-path:url(#SVGID_22_);fill:#FFFFFF;}
	.st13{clip-path:url(#SVGID_22_);fill:#EE5264;}
	.st14{clip-path:url(#SVGID_24_);fill:#FFFFFF;}
	.st15{clip-path:url(#SVGID_24_);fill:#393536;}
</style>
<g>
	<defs>
		<rect id="SVGID_23_" x="-0.1" width="20.2" height="9"/>
	</defs>
	<clipPath id="SVGID_2_">
		<use xlink:href="#SVGID_23_"  style="overflow:visible;"/>
	</clipPath>
	<path class="st0" d="M19.5,3.9h-0.4c-0.3-2.2-2-3.8-4.2-3.8c-2,0-3.6,1.4-4.1,3.3c-0.2-0.2-0.5-0.3-0.8-0.3c-0.3,0-0.6,0.1-0.8,0.3
		C8.8,1.5,7.2,0.1,5.2,0.1C3.1,0.1,1.3,1.8,1,3.9H0.6C0.3,3.9,0,4.2,0,4.5c0,0.3,0.2,0.6,0.5,0.6H1c0.3,2.2,2,3.8,4.2,3.8
		c2.3,0,4.2-2,4.2-4.4c0,0,0,0,0-0.1h0c0-0.4,0.3-0.7,0.7-0.7c0.4,0,0.7,0.3,0.7,0.7h0c0,0,0,0,0,0.1c0,2.4,1.9,4.4,4.2,4.4
		c2.1,0,3.9-1.7,4.2-3.8h0.4c0.3,0,0.5-0.3,0.5-0.6C20.1,4.2,19.8,3.9,19.5,3.9 M5.2,8.3c-2,0-3.6-1.7-3.6-3.8
		c0-2.1,1.6-3.8,3.6-3.8c2,0,3.6,1.7,3.6,3.8C8.8,6.6,7.2,8.3,5.2,8.3z M15,8.3c-2,0-3.6-1.7-3.6-3.8c0-2.1,1.6-3.8,3.6-3.8
		c2,0,3.6,1.7,3.6,3.8C18.6,6.6,16.9,8.3,15,8.3z"/>
	<path style="clip-path:url(#SVGID_2_);fill:#393536;" d="M19.5,3.9V3.8h-0.4v0.1l0.1,0c-0.1-1.1-0.7-2.1-1.4-2.8
		C17.1,0.4,16.1,0,15,0c-1,0-1.9,0.4-2.7,1c-0.7,0.6-1.3,1.5-1.5,2.4l0.1,0l0.1-0.1C10.7,3.1,10.4,3,10.1,3C9.8,3,9.5,3.1,9.2,3.3
		l0.1,0.1l0.1,0C9.2,2.4,8.6,1.6,7.9,1C7.1,0.4,6.2,0,5.2,0C4.1,0,3.1,0.4,2.3,1.1C1.6,1.8,1.1,2.8,0.9,3.9l0.1,0V3.8H0.6
		c-0.4,0-0.7,0.3-0.7,0.7c0,0.4,0.3,0.7,0.7,0.7H1V5.1l-0.1,0c0.1,1.1,0.7,2.1,1.4,2.8C3.1,8.6,4.1,9,5.2,9c2.4,0,4.3-2,4.3-4.5
		c0,0,0-0.1,0-0.1l-0.1,0v0.1h0.1V4.4c0-0.2,0.1-0.3,0.2-0.4c0.1-0.1,0.2-0.2,0.4-0.2c0.2,0,0.3,0.1,0.4,0.2
		c0.1,0.1,0.2,0.2,0.2,0.4v0.1h0.1V4.4l-0.1,0c0,0,0,0,0,0.1C10.6,7,12.6,9,15,9c1.1,0,2.1-0.4,2.9-1.1c0.8-0.7,1.3-1.7,1.4-2.8
		l-0.1,0v0.1h0.4c0.2,0,0.3-0.1,0.5-0.2c0.1-0.1,0.2-0.3,0.2-0.5c0-0.4-0.3-0.7-0.6-0.7V4c0.1,0,0.2,0.1,0.3,0.1
		C19.9,4.3,20,4.4,20,4.5c0,0.1,0,0.2-0.1,0.3C19.7,4.9,19.6,5,19.5,5H19L19,5c-0.1,1-0.6,2-1.4,2.6C16.9,8.4,16,8.8,15,8.8
		c-1.1,0-2.2-0.5-2.9-1.3c-0.7-0.8-1.2-1.8-1.2-3c0,0,0,0,0-0.1l0-0.1h-0.1v0.1h0.1c0-0.4-0.3-0.8-0.8-0.8C9.7,3.6,9.3,4,9.3,4.4
		h0.1V4.3H9.3l0,0.1c0,0,0,0,0,0.1c0,1.2-0.5,2.2-1.2,3C7.4,8.3,6.3,8.8,5.2,8.8c-1,0-2-0.4-2.7-1.1C1.8,7,1.3,6.1,1.1,5l0-0.1H0.6
		C0.5,5,0.3,4.9,0.3,4.8C0.2,4.7,0.1,4.6,0.1,4.5c0-0.1,0-0.2,0.1-0.3C0.3,4.1,0.5,4,0.6,4h0.5l0-0.1c0.1-1,0.6-2,1.4-2.6
		c0.7-0.7,1.7-1.1,2.7-1.1c1,0,1.8,0.3,2.5,0.9C8.4,1.7,9,2.5,9.2,3.4l0,0.2l0.1-0.1c0.2-0.2,0.4-0.3,0.7-0.3c0.3,0,0.5,0.1,0.7,0.3
		l0.1,0.1l0-0.2c0.2-0.9,0.7-1.7,1.4-2.3C13.1,0.6,14,0.2,15,0.2c1,0,2,0.4,2.7,1.1C18.4,2,18.9,2.9,19,3.9L19,4h0.5V3.9 M5.2,8.3
		V8.2c-1,0-1.8-0.4-2.5-1.1c-0.6-0.7-1-1.6-1-2.6c0-1,0.4-1.9,1-2.6c0.6-0.7,1.5-1.1,2.5-1.1c1,0,1.8,0.4,2.5,1.1
		c0.6,0.7,1,1.6,1,2.6c0,1-0.4,1.9-1,2.6C7,7.7,6.2,8.2,5.2,8.2v0.2c2.1,0,3.7-1.7,3.7-3.9c0-2.1-1.7-3.9-3.7-3.9
		c-2.1,0-3.7,1.7-3.7,3.9c0,2.1,1.7,3.9,3.7,3.9V8.3z M15,8.3V8.2c-1,0-1.8-0.4-2.5-1.1c-0.6-0.7-1-1.6-1-2.6c0-1,0.4-1.9,1-2.6
		C13.1,1.3,14,0.8,15,0.8c1,0,1.8,0.4,2.5,1.1c0.6,0.7,1,1.6,1,2.6c0,1-0.4,1.9-1,2.6c-0.6,0.7-1.5,1.1-2.5,1.1v0.2
		c2.1,0,3.7-1.7,3.7-3.9c0-2.1-1.7-3.9-3.7-3.9c-2.1,0-3.7,1.7-3.7,3.9c0,2.1,1.7,3.9,3.7,3.9V8.3z"/>
</g>
</svg>
