<?xml version="1.0" encoding="utf-8"?>
<!-- Generator: Adobe Illustrator 22.0.1, SVG Export Plug-In . SVG Version: 6.00 Build 0)  -->
<svg version="1.1" id="Layer_1" xmlns="http://www.w3.org/2000/svg" xmlns:xlink="http://www.w3.org/1999/xlink" x="0px" y="0px"
	 viewBox="0 0 14.3 12" style="enable-background:new 0 0 14.3 12;" xml:space="preserve">
<style type="text/css">
	.st0{clip-path:url(#SVGID_2_);fill:#FFFFFF;}
	.st1{clip-path:url(#SVGID_4_);fill:#FFFFFF;}
	.st2{clip-path:url(#SVGID_6_);fill:#FFFFFF;}
	.st3{clip-path:url(#SVGID_8_);fill:#FFFFFF;}
	.st4{clip-path:url(#SVGID_10_);fill:#FFFFFF;}
	.st5{clip-path:url(#SVGID_12_);fill:#FFFFFF;}
	.st6{clip-path:url(#SVGID_14_);fill:#FFFFFF;}
	.st7{clip-path:url(#SVGID_16_);fill:#FFFFFF;}
	.st8{clip-path:url(#SVGID_18_);fill:#FFFFFF;}
	.st9{clip-path:url(#SVGID_20_);fill:#FFFFFF;}
	.st10{clip-path:url(#SVGID_22_);fill:#636B70;}
	.st11{clip-path:url(#SVGID_22_);}
	.st12{clip-path:url(#SVGID_22_);fill:#FFFFFF;}
	.st13{clip-path:url(#SVGID_22_);fill:#EE5264;}
	.st14{clip-path:url(#SVGID_24_);fill:#FFFFFF;}
	.st15{clip-path:url(#SVGID_24_);fill:#393536;}
</style>
<g>
	<defs>
		<rect id="SVGID_9_" x="-0.1" width="14.3" height="12"/>
	</defs>
	<clipPath id="SVGID_2_">
		<use xlink:href="#SVGID_9_"  style="overflow:visible;"/>
	</clipPath>
	<path class="st0" d="M12.3,5c-0.5,0-0.9-0.4-0.9-0.9c0-0.2-0.2-0.4-0.4-0.4c-0.2,0-0.4,0.2-0.4,0.4c0,0.5-0.4,0.9-0.9,0.9
		S8.8,4.6,8.8,4.1c0-0.2-0.2-0.4-0.4-0.4S7.9,3.9,7.9,4.1C7.9,4.6,7.5,5,7,5C6.5,5,6.1,4.6,6.1,4.1c0-0.2-0.2-0.4-0.4-0.4
		S5.3,3.9,5.3,4.1C5.3,4.6,4.9,5,4.4,5C3.9,5,3.5,4.6,3.5,4.1c0-0.2-0.2-0.4-0.4-0.4S2.6,3.9,2.6,4.1C2.6,4.6,2.2,5,1.7,5
		C1.3,5,0.9,4.7,0.9,4.3l2.6-3.4h7.4l2.4,3.4C13.1,4.7,12.8,5,12.3,5z M11.4,11.1h-0.1V7c0-0.2-0.2-0.4-0.4-0.4H8.1
		C7.8,6.6,7.7,6.8,7.7,7v4.1H2.8c-0.3,0-0.5-0.2-0.5-0.5V5.8c0.3-0.1,0.5-0.3,0.7-0.5c0.3,0.4,0.8,0.6,1.3,0.6c0.5,0,1-0.2,1.3-0.6
		C6,5.6,6.5,5.9,7,5.9c0.5,0,1-0.2,1.3-0.6c0.3,0.4,0.8,0.6,1.3,0.6s1-0.2,1.3-0.6c0.2,0.3,0.5,0.4,0.9,0.5v4.8
		C11.9,10.9,11.6,11.1,11.4,11.1z M10.4,11.1H8.5V7.4h1.8V11.1z M14,3.9l-2.6-3.7C11.3,0.1,11.2,0,11,0H3.2C3.1,0,2.9,0.1,2.8,0.2
		L0.1,3.9C0,4,0,4,0,4.1C0,5,0.6,5.7,1.4,5.8v4.8c0,0.7,0.6,1.3,1.4,1.3h8.6c0.8,0,1.4-0.6,1.4-1.3V5.8C13.4,5.6,14,5,14,4.3
		C14.1,4.2,14.1,4,14,3.9z"/>
	<path class="st0" d="M6,9.3H3.9V7.4H6V9.3z M6.4,6.6h-3C3.2,6.6,3,6.8,3,7v2.7c0,0.2,0.2,0.4,0.4,0.4h3c0.2,0,0.4-0.2,0.4-0.4V7
		C6.9,6.8,6.7,6.6,6.4,6.6z"/>
</g>
</svg>
