<?xml version="1.0" encoding="utf-8"?>
<!-- Generator: Adobe Illustrator 22.0.1, SVG Export Plug-In . SVG Version: 6.00 Build 0)  -->
<svg version="1.1" id="Layer_1" xmlns="http://www.w3.org/2000/svg" xmlns:xlink="http://www.w3.org/1999/xlink" x="0px" y="0px"
	 viewBox="0 0 11.2 12" style="enable-background:new 0 0 11.2 12;" xml:space="preserve">
<style type="text/css">
	.st0{clip-path:url(#SVGID_2_);fill:#FFFFFF;}
	.st1{clip-path:url(#SVGID_4_);fill:#FFFFFF;}
	.st2{clip-path:url(#SVGID_6_);fill:#FFFFFF;}
	.st3{clip-path:url(#SVGID_8_);fill:#FFFFFF;}
	.st4{clip-path:url(#SVGID_10_);fill:#FFFFFF;}
	.st5{clip-path:url(#SVGID_12_);fill:#FFFFFF;}
	.st6{clip-path:url(#SVGID_14_);fill:#FFFFFF;}
	.st7{clip-path:url(#SVGID_16_);fill:#FFFFFF;}
	.st8{clip-path:url(#SVGID_18_);fill:#FFFFFF;}
	.st9{clip-path:url(#SVGID_20_);fill:#FFFFFF;}
	.st10{clip-path:url(#SVGID_22_);fill:#636B70;}
	.st11{clip-path:url(#SVGID_22_);}
	.st12{clip-path:url(#SVGID_22_);fill:#FFFFFF;}
	.st13{clip-path:url(#SVGID_22_);fill:#EE5264;}
	.st14{clip-path:url(#SVGID_24_);fill:#FFFFFF;}
	.st15{clip-path:url(#SVGID_24_);fill:#393536;}
</style>
<g>
	<defs>
		<rect id="SVGID_5_" x="-0.1" width="11.2" height="12"/>
	</defs>
	<clipPath id="SVGID_2_">
		<use xlink:href="#SVGID_5_"  style="overflow:visible;"/>
	</clipPath>
	<path class="st0" d="M0.1,6.5c0.1,0.5,0.3,1,0.6,1.5c0.6,1,1.5,1.9,2.6,2.4c0.2,0.1,0.4,0.2,0.6,0.2c-0.1-0.2-0.1-0.4-0.1-0.7
		c0-0.1,0-0.1,0-0.2C3.6,9.7,3.5,9.7,3.4,9.6c-1-0.5-1.7-1.3-2.2-2.2C1,7,0.9,6.6,0.8,6.2c-0.1-0.5-0.1-1,0-1.5
		C0.9,4.2,1,3.7,1.3,3.3c0.3-0.5,0.6-1,1.1-1.3c0.4-0.4,1-0.7,1.5-0.9c0.6-0.2,1.2-0.3,1.8-0.3c0.6,0,1.2,0.1,1.8,0.4
		c0.5,0.2,1.1,0.6,1.5,1C9.4,2.5,9.7,3,10,3.5c0.2,0.4,0.3,0.9,0.4,1.4c0.1,0.5,0,1-0.1,1.5C10.2,6.9,10,7.3,9.8,7.7
		c-0.5,0.9-1.3,1.6-2.2,2c-0.1,0-0.1,0-0.2,0.1l0,0.2c0,0.2-0.1,0.5-0.1,0.7l0,0c0.3-0.1,0.6-0.2,0.9-0.3c1.1-0.5,2-1.4,2.5-2.5
		c0.2-0.5,0.4-1,0.5-1.5c0.1-0.6,0.1-1.1,0-1.7C11,4.1,10.8,3.5,10.6,3c-0.3-0.6-0.7-1.1-1.2-1.6C8.9,1,8.3,0.6,7.6,0.4
		C6.9,0.1,6.2,0,5.5,0C4.8,0,4,0.2,3.4,0.4C2.7,0.7,2.1,1.1,1.7,1.6C1.2,2,0.8,2.6,0.5,3.1C0.3,3.6,0.1,4.2,0,4.8
		C-0.1,5.3,0,6,0.1,6.5z"/>
	<path class="st0" d="M5.5,3.7L5.5,3.7c-0.8,0-1.4,0.6-1.4,1.3c0,0.7,0.6,1.3,1.4,1.3c0.8,0,1.4-0.6,1.4-1.3
		C6.9,4.3,6.3,3.7,5.5,3.7z"/>
	<path class="st0" d="M8.2,4.3c0.1,0.3,0.2,0.5,0.2,0.8c0,0.3,0,0.6,0,0.9C8.3,6.3,8.2,6.6,8.1,6.8C7.9,7.1,7.7,7.4,7.4,7.6
		c0,0.1,0,0.1,0,0.2c0,0.2,0,0.3,0,0.5l0,0.2L7.4,8.6C8,8.2,8.6,7.6,8.9,7C9,6.7,9.1,6.3,9.2,6c0.1-0.4,0-0.7,0-1.1
		C9.1,4.5,9,4.2,8.8,3.9C8.6,3.5,8.3,3.2,8,2.9C7.7,2.6,7.3,2.3,6.9,2.2C6.4,2,5.9,1.9,5.4,1.9c-0.5,0-1,0.1-1.4,0.3
		C3.6,2.4,3.2,2.7,2.9,3C2.6,3.3,2.3,3.6,2.1,4C2,4.3,1.9,4.7,1.9,5c-0.1,0.4,0,0.8,0,1.2c0.1,0.3,0.2,0.7,0.4,1
		c0.3,0.5,0.8,1,1.3,1.3V8.3c0-0.2,0-0.3,0-0.5l0-0.2C3.3,7.4,3,7,2.9,6.6C2.7,6.4,2.7,6.1,2.6,5.8c0-0.3,0-0.6,0-0.9
		c0.1-0.3,0.1-0.5,0.3-0.8c0.2-0.3,0.4-0.6,0.6-0.8C3.8,3.1,4.1,3,4.5,2.8c0.4-0.1,0.8-0.2,1.1-0.2c0.4,0,0.8,0.1,1.1,0.2
		C7.1,3,7.3,3.2,7.6,3.5C7.9,3.7,8.1,4,8.2,4.3z"/>
	<path class="st0" d="M5.5,6.8c-0.7,0-1.4,0.6-1.4,1.3C4.2,12,5.5,12,5.5,12s1.4,0,1.4-3.9C6.9,7.4,6.3,6.8,5.5,6.8z"/>
</g>
</svg>
