<?xml version="1.0" encoding="utf-8"?>
<!-- Generator: Adobe Illustrator 22.0.1, SVG Export Plug-In . SVG Version: 6.00 Build 0)  -->
<svg version="1.1" id="Layer_1" xmlns="http://www.w3.org/2000/svg" xmlns:xlink="http://www.w3.org/1999/xlink" x="0px" y="0px"
	 viewBox="0 0 14.2 11.3" style="enable-background:new 0 0 14.2 11.3;" xml:space="preserve">
<style type="text/css">
	.st0{clip-path:url(#SVGID_2_);fill:#FFFFFF;}
	.st1{clip-path:url(#SVGID_4_);fill:#FFFFFF;}
	.st2{clip-path:url(#SVGID_6_);fill:#FFFFFF;}
	.st3{clip-path:url(#SVGID_8_);fill:#FFFFFF;}
	.st4{clip-path:url(#SVGID_10_);fill:#FFFFFF;}
	.st5{clip-path:url(#SVGID_12_);fill:#FFFFFF;}
	.st6{clip-path:url(#SVGID_14_);fill:#FFFFFF;}
	.st7{clip-path:url(#SVGID_16_);fill:#FFFFFF;}
	.st8{clip-path:url(#SVGID_18_);fill:#FFFFFF;}
	.st9{clip-path:url(#SVGID_20_);fill:#FFFFFF;}
	.st10{clip-path:url(#SVGID_22_);fill:#636B70;}
	.st11{clip-path:url(#SVGID_22_);}
	.st12{clip-path:url(#SVGID_22_);fill:#FFFFFF;}
	.st13{clip-path:url(#SVGID_22_);fill:#EE5264;}
	.st14{clip-path:url(#SVGID_24_);fill:#FFFFFF;}
	.st15{clip-path:url(#SVGID_24_);fill:#393536;}
</style>
<g>
	<defs>
		<rect id="SVGID_13_" x="0" width="11.8" height="11.2"/>
	</defs>
	<clipPath id="SVGID_2_">
		<use xlink:href="#SVGID_13_"  style="overflow:visible;"/>
	</clipPath>
	<path class="st0" d="M11.8,6.7c0-0.2-0.4-0.2-0.4,0c0,0.3,0,0.7,0,1c0,0.6-0.5,1.2-1.2,1.2c-0.4,0-0.8,0-1.2,0c-1.8,0-3.7,0-5.5,0
		c-0.4,0-0.9,0-1.3,0C2,8.9,2,9,1.9,9.1C1.8,9.2,1.7,9.3,1.6,9.4c-0.3,0.3-0.7,0.7-1,1c-0.1,0.1-0.1,0.1-0.2,0.2c0-1.2,0-2.3,0-3.5
		c0-1.5,0-3.1,0-4.6c0-0.3,0-0.6,0-0.8c0-0.4,0.1-0.8,0.4-1c0.4-0.3,1-0.2,1.5-0.2c1.8,0,3.6,0,5.4,0c0.7,0,1.4,0,2.1,0
		c0.1,0,0.2,0,0.4,0c0.6,0,1.1,0.5,1.2,1.1c0,0.6,0,1.2,0,1.8c0,0.2,0.4,0.2,0.4,0c0-0.4,0-0.7,0-1.1c0-0.4,0-0.8-0.1-1.2
		c-0.2-0.6-0.8-1-1.5-1C10.1,0,10,0,9.9,0C8.2,0,6.5,0,4.8,0C4,0,3.2,0,2.3,0C1.8,0,1.3-0.1,0.8,0.2C0.3,0.5,0,1,0,1.6
		C0,1.8,0,2,0,2.2C0,3.1,0,4.1,0,5c0,1.2,0,2.4,0,3.6c0,0.8,0,1.7,0,2.5c0,0.2,0.2,0.3,0.3,0.1C1,10.6,1.6,9.9,2.2,9.3
		c1.3,0,2.6,0,3.9,0c1.4,0,2.7,0,4.1,0c0.7,0,1.4-0.5,1.5-1.3c0-0.2,0-0.5,0-0.7C11.8,7.1,11.8,6.9,11.8,6.7"/>
</g>
<g>
	<g>
		<defs>
			<rect id="SVGID_15_" x="9.3" y="2.6" width="4.9" height="4.2"/>
		</defs>
		<clipPath id="SVGID_4_">
			<use xlink:href="#SVGID_15_"  style="overflow:visible;"/>
		</clipPath>
		<path class="st1" d="M14,3c-0.2-0.3-0.6-0.4-0.9-0.2C13,2.8,12.9,2.9,12.9,3c-0.4,0.3-0.8,0.6-1.1,0.9c-0.4,0.3-0.9,0.7-1.3,1
			C10.3,5,10.1,5.1,10,5.3c-0.1,0-0.2,0.1-0.2,0.2C9.7,5.6,9.6,5.8,9.6,6C9.5,6.2,9.4,6.4,9.3,6.6c0,0.1,0.1,0.2,0.2,0.2
			c0.4,0,0.8-0.1,1.1-0.1c0,0,0,0,0.1,0c0,0,0,0,0.1,0c0.6-0.5,1.3-1,1.9-1.5c0.4-0.3,0.7-0.6,1.1-0.9C13.9,4.1,14,4,14.1,4
			C14.4,3.7,14.2,3.2,14,3"/>
	</g>
	<g>
		<defs>
			<rect id="SVGID_17_" width="14.2" height="11.3"/>
		</defs>
		<clipPath id="SVGID_6_">
			<use xlink:href="#SVGID_17_"  style="overflow:visible;"/>
		</clipPath>
		<path class="st2" d="M9.6,2.2c-1.4,0-2.7,0-4.1,0c-1.1,0-2.3,0-3.4,0c-0.5,0-0.5,0.8,0,0.8c1.4,0,2.7,0,4.1,0c1.1,0,2.3,0,3.4,0
			C10.1,2.9,10.1,2.2,9.6,2.2"/>
		<path class="st2" d="M8.5,6.4c-1.5,0-2.9,0-4.4,0c-0.7,0-1.4,0-2.1,0c-0.5,0-0.5,0.8,0,0.8c1.5,0,2.9,0,4.4,0c0.7,0,1.4,0,2.1,0
			C9,7.2,9,6.4,8.5,6.4"/>
		<path class="st2" d="M8.5,4.3c-1.5,0-2.9,0-4.4,0c-0.7,0-1.4,0-2.1,0c-0.5,0-0.5,0.8,0,0.8c1.5,0,2.9,0,4.4,0c0.7,0,1.4,0,2.1,0
			C9,5.1,9,4.3,8.5,4.3"/>
	</g>
</g>
</svg>
